<?xml version="1.0" encoding="utf-8"?>
<!-- Generator: Adobe Illustrator 19.0.0, SVG Export Plug-In . SVG Version: 6.00 Build 0)  -->
<svg version="1.1" id="Layer_1" xmlns="http://www.w3.org/2000/svg" xmlns:xlink="http://www.w3.org/1999/xlink" x="0px" y="0px"
	 viewBox="0 0 96 96" style="enable-background:new 0 0 96 96;" xml:space="preserve">
<style type="text/css">
	.st0{fill:#ED4C5C;}
	.st1{fill:#428BC1;}
	.st2{fill:#FFFFFF;}
	.st3{fill:#89664C;}
	.st4{fill:#699635;}
	.st5{fill:#FF8736;}
	.st6{fill:#D0D0D0;}
	.st7{fill:#9DD7FF;}
	.st8{fill:#FFD83C;}
</style>
<g id="XMLID_2_">
	<path id="XMLID_4_" class="st0" d="M70.1,24.2c-5.8-5.4-13.5-8.7-22.1-8.7s-16.3,3.3-22.1,8.7H70.1z"/>
	<path id="XMLID_5_" class="st0" d="M25.9,71.8c5.8,5.4,13.5,8.7,22.1,8.7s16.3-3.3,22.1-8.7H25.9"/>
	<path id="XMLID_6_" class="st1" d="M15.5,48c0,9.4,4,17.9,10.4,23.8h44.2c6.4-6,10.4-14.4,10.4-23.8c0-9.4-4-17.9-10.4-23.8H25.9
		C19.5,30.1,15.5,38.6,15.5,48z"/>
	<circle id="XMLID_7_" class="st2" cx="48" cy="48" r="17.3"/>
	<path id="XMLID_10_" class="st3" d="M48,61.5c-7.5,0-13.5-6.1-13.5-13.5c0-7.5,6.1-13.5,13.5-13.5S61.5,40.5,61.5,48
		C61.5,55.5,55.5,61.5,48,61.5 M48,35.5c-6.8,0-12.5,5.6-12.5,12.5c0,6.8,5.6,12.5,12.5,12.5S60.5,54.8,60.5,48
		C60.5,41.2,54.8,35.5,48,35.5"/>
	<path id="XMLID_11_" class="st4" d="M46.9,37.2v-1.4c0.4,0,0.8-0.3,0.8-0.8c0-0.4-0.3-0.8-0.8-0.8v-1.4c1.2,0,2.2,1,2.2,2.2
		C49.1,36.2,48.1,37.2,46.9,37.2"/>
	<path id="XMLID_12_" class="st4" d="M44.2,37.8l-0.3-1.4c0.4-0.1,0.7-0.5,0.5-0.9c-0.1-0.4-0.5-0.7-0.9-0.5l-0.3-1.4
		c1.2-0.3,2.4,0.4,2.6,1.5C46.2,36.3,45.4,37.5,44.2,37.8"/>
	<path id="XMLID_13_" class="st4" d="M41.8,39l-0.7-1.3c0.3-0.2,0.4-0.7,0.3-1c-0.2-0.3-0.7-0.4-1-0.3l-0.7-1.3
		c1.1-0.5,2.4-0.2,2.9,0.9C43.2,37.2,42.9,38.5,41.8,39"/>
	<path id="XMLID_14_" class="st4" d="M39.8,40.8l-1-1.1c0.3-0.3,0.3-0.8,0-1c-0.3-0.3-0.8-0.3-1,0l-1-1.1c0.9-0.9,2.3-0.8,3,0.1
		C40.7,38.7,40.6,40,39.8,40.8"/>
	<path id="XMLID_15_" class="st4" d="M38.3,43.1l-1.2-0.8c0.2-0.3,0.1-0.8-0.2-1s-0.8-0.1-1,0.2l-1.2-0.8c0.7-1,2-1.3,3-0.7
		C38.6,40.7,38.9,42.1,38.3,43.1"/>
	<path id="XMLID_16_" class="st4" d="M37.4,45.7L36,45.3c0.1-0.4-0.1-0.8-0.4-0.9c-0.4-0.1-0.8,0.1-0.9,0.4l-1.4-0.4
		c0.3-1.1,1.6-1.7,2.7-1.4C37.1,43.3,37.7,44.5,37.4,45.7"/>
	<path id="XMLID_17_" class="st4" d="M37.2,48.4l-1.4-0.1c0-0.4-0.3-0.8-0.6-0.8c-0.4,0-0.8,0.3-0.8,0.7l-1.5-0.1
		c0.1-1.2,1.1-2.1,2.3-2.1C36.3,46.2,37.2,47.2,37.2,48.4"/>
	<path id="XMLID_18_" class="st4" d="M37.6,51.1l-1.4,0.2c-0.1-0.4-0.4-0.6-0.9-0.5c-0.4,0.1-0.7,0.4-0.5,0.9l-1.4,0.2
		c-0.2-1.2,0.5-2.3,1.7-2.5C36.2,49.2,37.4,49.9,37.6,51.1"/>
	<path id="XMLID_19_" class="st4" d="M38.7,53.6l-1.3,0.6c-0.2-0.3-0.6-0.5-1-0.3c-0.3,0.1-0.5,0.5-0.3,0.9l-1.3,0.7
		c-0.5-1.1,0-2.4,1.1-2.9C36.8,52,38.1,52.5,38.7,53.6"/>
	<path id="XMLID_20_" class="st4" d="M40.3,55.7l-1.1,0.9c-0.2-0.3-0.8-0.3-1-0.1c-0.3,0.2-0.3,0.8-0.1,1l-1.1,1
		c-0.8-1-0.6-2.3,0.3-3C38.3,54.7,39.5,54.8,40.3,55.7"/>
	<path id="XMLID_21_" class="st4" d="M42.5,57.4l-0.9,1.2c-0.3-0.2-0.8-0.1-1,0.1s-0.1,0.8,0.1,1l-0.9,1.2c-1-0.7-1.2-2.1-0.4-3
		C40.2,56.9,41.5,56.7,42.5,57.4"/>
	<path id="XMLID_22_" class="st4" d="M45,58.5l-0.5,1.3c-0.3-0.1-0.8,0-1,0.4c-0.1,0.3,0,0.8,0.4,1l-0.5,1.3
		c-1.1-0.4-1.6-1.7-1.2-2.8C42.6,58.6,43.9,58.1,45,58.5"/>
	<path id="XMLID_23_" class="st4" d="M47.7,58.8l-0.2,1.4c-0.4,0-0.8,0.2-0.8,0.7s0.2,0.8,0.6,0.8l-0.2,1.5
		c-1.2-0.1-2.1-1.2-1.8-2.4C45.4,59.6,46.5,58.7,47.7,58.8"/>
	<path id="XMLID_24_" class="st4" d="M50.4,58.6l0.2,1.4c-0.4,0-0.6,0.4-0.6,0.8c0,0.4,0.4,0.7,0.8,0.7l0.2,1.4
		c-1.2,0.1-2.3-0.6-2.4-1.8C48.4,59.8,49.3,58.7,50.4,58.6"/>
	<path id="XMLID_25_" class="st4" d="M53,57.6l0.5,1.3c-0.3,0.1-0.5,0.5-0.4,1c0.1,0.3,0.5,0.5,1,0.4l0.5,1.3
		c-1.1,0.4-2.4-0.1-2.8-1.2C51.4,59.4,51.9,58.1,53,57.6"/>
	<path id="XMLID_26_" class="st4" d="M55.3,56.1l0.9,1.2c-0.3,0.2-0.4,0.6-0.1,1c0.2,0.3,0.7,0.4,1,0.1l0.9,1.2
		c-1,0.7-2.3,0.4-3-0.4C54.1,58.2,54.3,56.9,55.3,56.1"/>
	<path id="XMLID_27_" class="st4" d="M57,54.1l1.1,0.9c-0.2,0.3-0.2,0.8,0.1,1c0.3,0.2,0.8,0.2,1-0.1l1.1,0.9c-0.8,1-2.2,1.1-3,0.3
		C56.5,56.3,56.2,55,57,54.1"/>
	<path id="XMLID_28_" class="st4" d="M58.3,51.7l1.3,0.7c-0.2,0.3,0,0.8,0.3,1c0.3,0.2,0.8,0,1-0.3l1.3,0.7
		c-0.5,1.1-1.8,1.5-2.9,1.1C58.2,54.3,57.8,52.7,58.3,51.7"/>
	<path id="XMLID_29_" class="st4" d="M58.8,49l1.4,0.2c-0.1,0.4,0.2,0.8,0.5,0.9c0.4,0.1,0.8-0.2,0.9-0.5l1.4,0.2
		c-0.2,1.2-1.4,2-2.5,1.7C59.4,51.3,58.6,50.2,58.8,49"/>
	<path id="XMLID_30_" class="st4" d="M58.7,46.3l1.4-0.1c0,0.4,0.3,0.7,0.8,0.7c0.4,0,0.7-0.3,0.7-0.8l1.4-0.1
		c0.1,1.2-0.9,2.3-2.1,2.3C59.8,48.3,58.8,47.5,58.7,46.3"/>
	<path id="XMLID_31_" class="st4" d="M58,43.7l1.4-0.4c0.1,0.4,0.5,0.5,0.9,0.4c0.3-0.1,0.5-0.5,0.4-0.9l1.4-0.4
		c0.3,1.1-0.2,2.4-1.4,2.7C59.5,45.4,58.3,44.8,58,43.7"/>
	<path id="XMLID_32_" class="st4" d="M56.6,41.3l1.2-0.8c0.2,0.3,0.7,0.4,1,0.2c0.3-0.2,0.4-0.6,0.2-1l1.2-0.8c0.7,1,0.3,2.4-0.6,3
		C58.5,42.6,57.2,42.3,56.6,41.3"/>
	<path id="XMLID_33_" class="st4" d="M54.6,39.3l1-1.1c0.3,0.3,0.8,0.2,1,0c0.3-0.3,0.2-0.8,0-1l1-1.1c0.9,0.9,0.9,2.2,0.1,3
		C56.9,40.1,55.5,40.2,54.6,39.3"/>
	<path id="XMLID_34_" class="st4" d="M52.2,38l0.7-1.3c0.3,0.2,0.8,0.1,1-0.3c0.2-0.3,0.1-0.8-0.3-1l0.6-1.3
		c1.1,0.5,1.4,1.9,0.9,2.9C54.6,38.1,53.3,38.6,52.2,38"/>
	<path id="XMLID_35_" class="st4" d="M49.6,37.3l0.3-1.4c0.4,0.1,0.8-0.1,0.9-0.5c0.1-0.4-0.1-0.8-0.5-0.9l0.3-1.4
		c1.2,0.3,1.8,1.5,1.5,2.6C52,36.8,50.8,37.5,49.6,37.3"/>
	<ellipse id="XMLID_36_" class="st4" cx="47.8" cy="55.3" rx="8.5" ry="1.7"/>
	<path id="XMLID_39_" class="st4" d="M53.7,40.3c0-0.8-1.2-1.3-2.6-1.3c0.2-0.1,0.3-0.3,0.3-0.5c0-0.5-0.9-1-2.1-1
		c-0.5,0-1.1,0.1-1.5,0.3c-0.2,0-0.4-0.1-0.7-0.1c-1,0-1.8,0.3-2.1,0.9c-0.1,0-0.3,0-0.4,0c-1.1,0-2.1,0.4-2.1,1
		c0,0.4,0.5,0.8,1.2,0.9c-0.5,0.2-0.9,0.5-0.9,1c0,0.8,1.2,1.3,2.7,1.3c0.8,0,1.4-0.1,1.8-0.3c0,0.1-0.1,0.2-0.1,0.3
		c0,0.3,0.3,0.6,0.8,1c-0.1,0-0.2,0.1-0.2,0.1c-0.3-0.5-1-0.9-1.8-0.9c-1.1,0-2.1,0.5-2.1,1.3c0,0.8,0.9,1.3,2.1,1.3
		c0.5,0,1.1-0.2,1.5-0.4c0.3,0.5,1,0.9,1.8,0.9c1.1,0,2.1-0.5,2.1-1.3c0-0.3-0.1-0.5-0.3-0.8c1-0.2,1.7-0.6,1.7-1.2
		c0-0.4-0.4-0.9-1.1-1.1C52.9,41.4,53.7,41,53.7,40.3 M48.6,39.4c0.1,0,0.2,0,0.3,0c-0.4,0.2-0.7,0.5-0.7,0.9c0,0.4,0.4,0.9,1.1,1.1
		c-0.4,0.1-0.8,0.2-1.1,0.3c0-0.1,0.1-0.2,0.1-0.3c0-0.7-0.9-1.2-2.1-1.3c0.2-0.1,0.3-0.2,0.3-0.4c0.1,0,0.3,0,0.4,0
		C47.7,39.8,48.2,39.7,48.6,39.4"/>
	<path id="XMLID_40_" class="st5" d="M44.3,45.7c0.1-0.4-0.2-0.9-0.1-1.3c0.1-1.1-0.3-0.7-0.9-1.3c-0.5-0.4,0.1-1,0-1.5
		c-0.1-1-0.6-0.5-1.3-0.5c-0.5,0,0.5,1.7-0.2,2.2c-1,0.5-1.1,0.8-1.4,1.7c-0.1-0.3-0.2-0.2-0.1-0.7c0,0-0.6,0.3-0.8,0.3
		c-0.2,0.1,0.1,1.1,0.2,1.3c0.4,0.8,1.5,0.3,1.5-0.5c0.3,1.1,0.1,1.1,1.4,1.2c0.4,0,1.2,0,1-0.8c0.2,1.4,1,0.5,1.6,0.1
		C45.1,46,44.3,45.8,44.3,45.7"/>
	<path id="XMLID_41_" d="M41.8,41.4c-0.5-0.4,0.8-0.9,1-0.8c0.4,0,0.7,0.5,0.7,1c-0.1,0.9-0.1-0.1-0.2,0.2c0-0.2-0.1-0.4,0-0.6
		C42.7,41.4,42,41.1,41.8,41.4"/>
	<path id="XMLID_42_" class="st6" d="M43.9,51.1c0-1.5-0.3-3.1-0.3-4.5c-0.6,0.3-2.1-0.1-2.1-0.1s-0.7,3.1-0.7,3.9
		c0,1.3-0.6,3-0.4,4.2c0.1,0.8,1.1,0,1.3-0.1c0.2-0.2,0.1-1.1,0.1-1.4c0-1.3,0.1-2.4,0.5-3.6c0,0.8,0.4,1.4,0.3,2.3
		c0,0.9,0,1.7,0,2.5c0,0.1,1.2,0.2,1.3,0C44.1,53.3,43.9,52.2,43.9,51.1"/>
	<path id="XMLID_43_" class="st3" d="M51.8,45.8c0,0.1-0.8,0.3-0.9,0.3c0.7,0.5,1.4,1.3,1.6-0.1c-0.2,0.8,0.4,0.8,0.9,0.8
		c1.3,0,1.1-0.1,1.4-1.2c0,0.9,1.1,1.2,1.5,0.5c0.1-0.2,0.4-1.1,0.2-1.3c-0.1,0-0.8-0.3-0.8-0.3c0.1,0.4-0.1,0.3-0.1,0.7
		c-0.3-1.1-0.4-1.2-1.4-1.7c-0.8-0.4,0.4-2.2-0.2-2.2c-0.8,0-1.3-0.4-1.3,0.5c0,0.5,0.5,1,0,1.5c-0.6,0.5-1,0.2-0.9,1.3
		C52,45,51.7,45.4,51.8,45.8"/>
	<path id="XMLID_44_" d="M54.3,41.4c-0.2-0.2-0.9,0-1.3-0.2c0.1,0.2,0,0.4,0,0.6c-0.2-0.3-0.2,0.5-0.2-0.2c0-0.4,0.1-1,0.7-1
		C53.5,40.6,54.8,41,54.3,41.4"/>
	<path id="XMLID_45_" class="st6" d="M52.2,51.3c0-1.5,0.3-3.1,0.3-4.6c0.7,0.3,2.1-0.1,2.1-0.1s0.6,3.1,0.6,3.9
		c0,1.3,0.8,3,0.4,4.2c-0.1,0.8-1.1,0-1.3-0.1c-0.2-0.2-0.1-1.1-0.1-1.4c0-1.3-0.1-2.4-0.5-3.6c0,0.8-0.4,1.4-0.3,2.3
		c0,0.9,0,1.7,0,2.5c0,0.1-1.2,0.2-1.3,0C52.1,53.4,52.2,52.3,52.2,51.3"/>
	<path id="XMLID_46_" class="st7" d="M51.8,46v4.5c0,0.9-0.1,4.4-3.7,5.8c-3.6-1.4-3.7-5-3.7-5.8V46H51.8"/>
	<path id="XMLID_47_" class="st6" d="M48.1,46v3.7l-3.4,3.1c-0.3-1-0.3-2-0.3-2.3V46H48.1"/>
	<path id="XMLID_48_" class="st8" d="M48.1,46v3.7l3.4,3.1c0.3-1,0.3-2,0.3-2.3V46H48.1"/>
</g>
</svg>
